Perun-Bold.ufo
<glyph name="exclam" format="2">
  <advance width="389"/>
  <unicode hex="0021"/>
  <outline>
    <contour>
      <point x="265" y="722" type="line"/>
      <point x="239" y="191" type="line"/>
      <point x="141" y="191" type="line"/>
      <point x="115" y="722" type="line"/>
    </contour>
    <contour>
      <point x="260" y="0" type="line"/>
      <point x="130" y="0" type="line"/>
      <point x="130" y="115" type="line"/>
      <point x="260" y="115" type="line"/>
    </contour>
  </outline>
</glyph>
<glyph name="dollar" format="2">
  <advance width="573"/>
  <unicode hex="0024"/>
  <outline>
    <contour>
      <point x="314" y="107" type="line"/>
      <point x="374" y="115"/>
      <point x="413" y="151"/>
      <point x="413" y="199" type="curve" smooth="yes"/>
      <point x="413" y="242"/>
      <point x="381" y="273"/>
      <point x="314" y="298" type="curve"/>
    </contour>
    <contour>
      <point x="47" y="515" type="curve" smooth="yes"/>
      <point x="47" y="633"/>
      <point x="136" y="725"/>
      <point x="259" y="738" type="curve"/>
      <point x="259" y="799" type="line"/>
      <point x="314" y="799" type="line"/>
      <point x="314" y="740" type="line"/>
      <point x="448" y="732"/>
      <point x="527" y="651"/>
      <point x="527" y="523" type="curve"/>
      <point x="392" y="523" type="line"/>
      <point x="392" y="580"/>
      <point x="363" y="618"/>
      <point x="314" y="626" type="curve"/>
      <point x="314" y="425" type="line"/>
      <point x="452" y="386"/>
      <point x="545" y="346"/>
      <point x="545" y="210" type="curve" smooth="yes"/>
      <point x="545" y="98"/>
      <point x="446" y="5"/>
      <point x="314" y="-8" type="curve"/>
      <point x="314" y="-99" type="line"/>
      <point x="259" y="-99" type="line"/>
      <point x="259" y="-8" type="line"/>
      <point x="118" y="2"/>
      <point x="29" y="94"/>
      <point x="29" y="231" type="curve"/>
      <point x="164" y="231" type="line"/>
      <point x="164" y="153"/>
      <point x="195" y="114"/>
      <point x="259" y="105" type="curve"/>
      <point x="259" y="313" type="line"/>
      <point x="112" y="354"/>
      <point x="47" y="415"/>
    </contour>
    <contour>
      <point x="259" y="446" type="curve"/>
      <point x="259" y="626" type="line"/>
      <point x="212" y="613"/>
      <point x="179" y="576"/>
      <point x="179" y="535" type="curve" smooth="yes"/>
      <point x="179" y="498"/>
      <point x="206" y="469"/>
    </contour>
  </outline>
</glyph>
<glyph name="ampersand" format="2">
  <advance width="789"/>
  <unicode hex="0026"/>
  <outline>
    <contour>
      <point x="268" y="329" type="curve"/>
      <point x="239" y="300"/>
      <point x="194" y="251"/>
      <point x="194" y="207" type="curve" smooth="yes"/>
      <point x="194" y="123"/>
      <point x="270" y="85"/>
      <point x="342" y="85" type="curve" smooth="yes"/>
      <point x="387" y="85"/>
      <point x="439" y="100"/>
      <point x="466" y="127" type="curve"/>
      <point x="379" y="204"/>
      <point x="313" y="271"/>
    </contour>
    <contour>
      <point x="319" y="635" type="curve" smooth="yes"/>
      <point x="283" y="635"/>
      <point x="242" y="610"/>
      <point x="242" y="569" type="curve" smooth="yes"/>
      <point x="242" y="540"/>
      <point x="265" y="503"/>
      <point x="309" y="456" type="curve"/>
      <point x="345" y="483"/>
      <point x="398" y="526"/>
      <point x="398" y="568" type="curve" smooth="yes"/>
      <point x="398" y="605"/>
      <point x="358" y="635"/>
    </contour>
    <contour>
      <point x="533" y="223" type="curve"/>
      <point x="550" y="255"/>
      <point x="560" y="293"/>
      <point x="560" y="334" type="curve" smooth="yes"/>
      <point x="560" y="352"/>
      <point x="558" y="381"/>
      <point x="557" y="381" type="curve"/>
      <point x="693" y="381" type="line"/>
      <point x="693" y="295"/>
      <point x="688" y="200"/>
      <point x="628" y="132" type="curve"/>
      <point x="682" y="69"/>
      <point x="705" y="52"/>
      <point x="779" y="-1" type="curve"/>
      <point x="613" y="-1" type="line"/>
      <point x="592" y="14"/>
      <point x="569" y="33"/>
      <point x="552" y="50" type="curve"/>
      <point x="505" y="2"/>
      <point x="398" y="-15"/>
      <point x="325" y="-15" type="curve" smooth="yes"/>
      <point x="182" y="-15"/>
      <point x="54" y="50"/>
      <point x="54" y="199" type="curve" smooth="yes"/>
      <point x="54" y="303"/>
      <point x="117" y="364"/>
      <point x="202" y="412" type="curve"/>
      <point x="151" y="450"/>
      <point x="109" y="523"/>
      <point x="109" y="586" type="curve" smooth="yes"/>
      <point x="109" y="686"/>
      <point x="217" y="735"/>
      <point x="325" y="735" type="curve" smooth="yes"/>
      <point x="412" y="735"/>
      <point x="522" y="702"/>
      <point x="522" y="595" type="curve" smooth="yes"/>
      <point x="522" y="491"/>
      <point x="468" y="447"/>
      <point x="374" y="390" type="curve"/>
      <point x="413" y="340"/>
      <point x="466" y="285"/>
    </contour>
  </outline>
</glyph>
<glyph name="three" format="2">
  <advance width="573"/>
  <unicode hex="0033"/>
  <outline>
    <contour>
      <point x="508" y="545" type="curve" smooth="yes"/>
      <point x="508" y="454"/>
      <point x="455" y="398"/>
      <point x="374" y="377" type="curve"/>
      <point x="463" y="361"/>
      <point x="527" y="302"/>
      <point x="527" y="211" type="curve" smooth="yes"/>
      <point x="527" y="74"/>
      <point x="407" y="-14"/>
      <point x="294" y="-14" type="curve" smooth="yes"/>
      <point x="126" y="-14"/>
      <point x="46" y="58"/>
      <point x="46" y="203" type="curve"/>
      <point x="72.9723" y="203"/>
      <point x="162.655" y="203"/>
      <point x="189" y="203" type="curve"/>
      <point x="189" y="126"/>
      <point x="232" y="96"/>
      <point x="288" y="96" type="curve" smooth="yes"/>
      <point x="347" y="96"/>
      <point x="384" y="143"/>
      <point x="384" y="215" type="curve" smooth="yes"/>
      <point x="384" y="315"/>
      <point x="313" y="321"/>
      <point x="237" y="321" type="curve" smooth="yes"/>
      <point x="233.742" y="321"/>
      <point x="223.193" y="321"/>
      <point x="219" y="321" type="curve"/>
      <point x="219" y="431" type="line"/>
      <point x="236" y="431" type="line" smooth="yes"/>
      <point x="306" y="431"/>
      <point x="368" y="448"/>
      <point x="368" y="529" type="curve" smooth="yes"/>
      <point x="368" y="584"/>
      <point x="339" y="626"/>
      <point x="285" y="626" type="curve" smooth="yes"/>
      <point x="236" y="626"/>
      <point x="187" y="591"/>
      <point x="187" y="532" type="curve"/>
      <point x="162.441" y="532"/>
      <point x="77.371" y="532"/>
      <point x="47" y="532" type="curve"/>
      <point x="47" y="666"/>
      <point x="151" y="736"/>
      <point x="295" y="736" type="curve" smooth="yes"/>
      <point x="417" y="736"/>
      <point x="508" y="662"/>
    </contour>
  </outline>
</glyph>
<glyph name="four" format="2">
  <advance width="573"/>
  <unicode hex="0034"/>
  <outline>
    <contour>
      <point x="145" y="273" type="line"/>
      <point x="327" y="273" type="line"/>
      <point x="327" y="590" type="line"/>
    </contour>
    <contour>
      <point x="22" y="158" type="line"/>
      <point x="22" y="288" type="line"/>
      <point x="287" y="722" type="line"/>
      <point x="462" y="722" type="line"/>
      <point x="462" y="273" type="line"/>
      <point x="552" y="273" type="line"/>
      <point x="552" y="158" type="line"/>
      <point x="462" y="158" type="line"/>
      <point x="462" y="0" type="line"/>
      <point x="327" y="0" type="line"/>
      <point x="327" y="158" type="line"/>
    </contour>
  </outline>
</glyph>
<glyph name="five" format="2">
  <advance width="573"/>
  <unicode hex="0035"/>
  <outline>
    <contour>
      <point x="332" y="471" type="curve" smooth="yes"/>
      <point x="459" y="471"/>
      <point x="536" y="388"/>
      <point x="536" y="259" type="curve" smooth="yes"/>
      <point x="536" y="107"/>
      <point x="430" y="-14"/>
      <point x="261" y="-14" type="curve" smooth="yes"/>
      <point x="135" y="-14"/>
      <point x="46" y="53"/>
      <point x="39" y="184" type="curve"/>
      <point x="61.3583" y="184"/>
      <point x="145.812" y="184"/>
      <point x="174" y="184" type="curve"/>
      <point x="174" y="127"/>
      <point x="213" y="96"/>
      <point x="272" y="96" type="curve" smooth="yes"/>
      <point x="360" y="96"/>
      <point x="396" y="165"/>
      <point x="396" y="247" type="curve" smooth="yes"/>
      <point x="396" y="328"/>
      <point x="361" y="369"/>
      <point x="295" y="369" type="curve" smooth="yes"/>
      <point x="237" y="369"/>
      <point x="198" y="337"/>
      <point x="177" y="292" type="curve"/>
      <point x="49" y="292" type="line"/>
      <point x="69" y="722" type="line"/>
      <point x="127.92" y="722"/>
      <point x="400.485" y="722"/>
      <point x="495" y="722" type="curve"/>
      <point x="495" y="702.079"/>
      <point x="495" y="633.267"/>
      <point x="495" y="607" type="curve"/>
      <point x="437.301" y="607"/>
      <point x="243.467" y="607"/>
      <point x="200" y="607" type="curve"/>
      <point x="197.834" y="570.171"/>
      <point x="191.07" y="455.192"/>
      <point x="189" y="420" type="curve"/>
      <point x="220" y="451"/>
      <point x="269" y="471"/>
    </contour>
  </outline>
</glyph>
<glyph name="question" format="2">
  <advance width="539"/>
  <unicode hex="003F"/>
  <outline>
    <contour>
      <point x="290" y="-3" type="line"/>
      <point x="170" y="-3" type="line"/>
      <point x="170" y="109" type="line"/>
      <point x="290" y="109" type="line"/>
    </contour>
    <contour>
      <point x="341" y="548" type="curve" smooth="yes"/>
      <point x="341" y="601"/>
      <point x="303" y="632"/>
      <point x="247" y="632" type="curve" smooth="yes"/>
      <point x="186" y="632"/>
      <point x="152" y="596"/>
      <point x="116" y="532" type="curve"/>
      <point x="23" y="593" type="line"/>
      <point x="72" y="686"/>
      <point x="168" y="734"/>
      <point x="270" y="734" type="curve" smooth="yes"/>
      <point x="386" y="734"/>
      <point x="482" y="674"/>
      <point x="482" y="560" type="curve" smooth="yes"/>
      <point x="482" y="447"/>
      <point x="426" y="416"/>
      <point x="373" y="388" type="curve" smooth="yes"/>
      <point x="326" y="363"/>
      <point x="282" y="340"/>
      <point x="282" y="261" type="curve" smooth="yes"/>
      <point x="282" y="181" type="line"/>
      <point x="182" y="181" type="line"/>
      <point x="182" y="276" type="line" smooth="yes"/>
      <point x="182" y="356"/>
      <point x="221" y="383"/>
      <point x="261" y="411" type="curve" smooth="yes"/>
      <point x="301" y="439"/>
      <point x="341" y="467"/>
    </contour>
  </outline>
</glyph>
<glyph name="G" format="2">
  <advance width="774"/>
  <unicode hex="0047"/>
  <anchor x="384" y="797" name="top"/>
  <outline>
    <contour>
      <point x="54" y="348" type="curve" smooth="yes"/>
      <point x="54" y="572"/>
      <point x="198" y="736"/>
      <point x="421" y="736" type="curve" smooth="yes"/>
      <point x="594" y="736"/>
      <point x="714" y="662"/>
      <point x="714" y="495" type="curve"/>
      <point x="563" y="495" type="line"/>
      <point x="563" y="585"/>
      <point x="498" y="621"/>
      <point x="417" y="621" type="curve" smooth="yes"/>
      <point x="258" y="621"/>
      <point x="204" y="481"/>
      <point x="204" y="357" type="curve" smooth="yes"/>
      <point x="204" y="202"/>
      <point x="289" y="101"/>
      <point x="447" y="101" type="curve" smooth="yes"/>
      <point x="478" y="101"/>
      <point x="517" y="105"/>
      <point x="554" y="116" type="curve"/>
      <point x="554" y="265" type="line"/>
      <point x="424" y="265" type="line"/>
      <point x="424" y="384" type="line"/>
      <point x="704" y="384" type="line"/>
      <point x="704" y="31" type="line"/>
      <point x="599" y="1"/>
      <point x="513" y="-14"/>
      <point x="435" y="-14" type="curve" smooth="yes"/>
      <point x="205" y="-14"/>
      <point x="54" y="118"/>
    </contour>
  </outline>
</glyph>
<glyph name="H" format="2">
  <advance width="695"/>
  <unicode hex="0048"/>
  <anchor x="348" y="-75" name="bottom"/>
  <anchor x="130" y="10" name="cedilla.bottom"/>
  <anchor x="10" y="361" name="left"/>
  <anchor x="348" y="797" name="top"/>
  <outline>
    <contour>
      <point x="60" y="0" type="line"/>
      <point x="60" y="722" type="line"/>
      <point x="205" y="722" type="line"/>
      <point x="205" y="435" type="line"/>
      <point x="490" y="435" type="line"/>
      <point x="490" y="722" type="line"/>
      <point x="635" y="722" type="line"/>
      <point x="635" y="0" type="line"/>
      <point x="490" y="0" type="line"/>
      <point x="490" y="320" type="line"/>
      <point x="205" y="320" type="line"/>
      <point x="205" y="0" type="line"/>
    </contour>
  </outline>
</glyph>
<glyph name="M" format="2">
  <advance width="929"/>
  <unicode hex="004D"/>
  <anchor x="465" y="797" name="top"/>
  <outline>
    <contour>
      <point x="70" y="0" type="line"/>
      <point x="70" y="722" type="line"/>
      <point x="310" y="722" type="line"/>
      <point x="465" y="200" type="line"/>
      <point x="620" y="726" type="line"/>
      <point x="860" y="726" type="line"/>
      <point x="860" y="0" type="line"/>
      <point x="710" y="0" type="line"/>
      <point x="710" y="600" type="line"/>
      <point x="720" y="600" type="line"/>
      <point x="537" y="0" type="line"/>
      <point x="393" y="0" type="line"/>
      <point x="210" y="600" type="line"/>
      <point x="220" y="600" type="line"/>
      <point x="220" y="0" type="line"/>
    </contour>
  </outline>
</glyph>
<glyph name="X" format="2">
  <advance width="692"/>
  <unicode hex="0058"/>
  <anchor x="347" y="797" name="top"/>
  <outline>
    <contour>
      <point x="683" y="0" type="line"/>
      <point x="513" y="0" type="line"/>
      <point x="334" y="274" type="line"/>
      <point x="160" y="0" type="line"/>
      <point x="10" y="0" type="line"/>
      <point x="262" y="376" type="line"/>
      <point x="31" y="722" type="line"/>
      <point x="201" y="722" type="line"/>
      <point x="355" y="479" type="line"/>
      <point x="508" y="722" type="line"/>
      <point x="663" y="722" type="line"/>
      <point x="428" y="376" type="line"/>
    </contour>
  </outline>
</glyph>
<glyph name="Y" format="2">
  <advance width="653"/>
  <unicode hex="0059"/>
  <anchor x="327" y="797" name="top"/>
  <outline>
    <contour>
      <point x="644" y="722" type="line"/>
      <point x="402" y="273" type="line"/>
      <point x="402" y="0" type="line"/>
      <point x="252" y="0" type="line"/>
      <point x="252" y="273" type="line"/>
      <point x="10" y="722" type="line"/>
      <point x="176" y="722" type="line"/>
      <point x="327" y="419" type="line"/>
      <point x="478" y="722" type="line"/>
    </contour>
  </outline>
</glyph>
<glyph name="Z" format="2">
  <advance width="632"/>
  <unicode hex="005A"/>
  <anchor x="329" y="797" name="top"/>
  <outline>
    <contour>
      <point x="588" y="0" type="line"/>
      <point x="45" y="0" type="line"/>
      <point x="45" y="125" type="line"/>
      <point x="407" y="607" type="line"/>
      <point x="67" y="607" type="line"/>
      <point x="67" y="722" type="line"/>
      <point x="580" y="722" type="line"/>
      <point x="580" y="597" type="line"/>
      <point x="218" y="115" type="line"/>
      <point x="588" y="115" type="line"/>
    </contour>
  </outline>
</glyph>
<glyph name="f" format="2">
  <advance width="354"/>
  <unicode hex="0066"/>
  <anchor x="183" y="810" name="top"/>
  <outline>
    <contour>
      <point x="100" y="575" type="line" smooth="yes"/>
      <point x="100" y="689"/>
      <point x="146" y="735"/>
      <point x="248.119" y="735" type="curve" smooth="yes"/>
      <point x="285" y="735"/>
      <point x="318" y="729"/>
      <point x="355" y="717" type="curve"/>
      <point x="355" y="632" type="line"/>
      <point x="336" y="642"/>
      <point x="317.026" y="646"/>
      <point x="296.713" y="646" type="curve" smooth="yes"/>
      <point x="248.005" y="646"/>
      <point x="235" y="623"/>
      <point x="235" y="572" type="curve" smooth="yes"/>
      <point x="235" y="500" type="line"/>
      <point x="341" y="500" type="line"/>
      <point x="341" y="415" type="line"/>
      <point x="235" y="415" type="line"/>
      <point x="235" y="0" type="line"/>
      <point x="100" y="0" type="line"/>
      <point x="100" y="415" type="line"/>
      <point x="10" y="415" type="line"/>
      <point x="10" y="500" type="line"/>
      <point x="100" y="500" type="line"/>
    </contour>
  </outline>
</glyph>
<glyph name="h" format="2">
  <advance width="586"/>
  <unicode hex="0068"/>
  <anchor x="293" y="-76" name="bottom"/>
  <anchor x="129" y="0" name="cedilla.bottom"/>
  <anchor x="293" y="796" name="top"/>
  <outline>
    <contour>
      <point x="357" y="514" type="curve" smooth="yes"/>
      <point x="467" y="514"/>
      <point x="526" y="446"/>
      <point x="526" y="339" type="curve" smooth="yes"/>
      <point x="526" y="-1" type="line"/>
      <point x="391" y="-1" type="line"/>
      <point x="391" y="299" type="line" smooth="yes"/>
      <point x="391" y="388"/>
      <point x="361" y="432"/>
      <point x="301" y="432" type="curve" smooth="yes"/>
      <point x="239" y="432"/>
      <point x="195" y="352"/>
      <point x="195" y="288" type="curve" smooth="yes"/>
      <point x="195" y="-1" type="line"/>
      <point x="60" y="-1" type="line"/>
      <point x="60" y="722" type="line"/>
      <point x="195" y="722" type="line"/>
      <point x="195" y="442" type="line"/>
      <point x="232.348" y="495.741"/>
      <point x="285.922" y="514"/>
    </contour>
  </outline>
</glyph>
<glyph name="k" format="2">
  <advance width="545"/>
  <unicode hex="006B"/>
  <anchor x="295" y="797" name="top"/>
  <outline>
    <contour>
      <point x="530" y="0" type="line"/>
      <point x="366" y="0" type="line"/>
      <point x="195" y="261" type="line"/>
      <point x="195" y="0" type="line"/>
      <point x="60" y="0" type="line"/>
      <point x="60" y="722" type="line"/>
      <point x="195" y="722" type="line"/>
      <point x="195" y="301" type="line"/>
      <point x="352" y="500" type="line"/>
      <point x="514" y="500" type="line"/>
      <point x="334" y="284" type="line"/>
    </contour>
  </outline>
</glyph>
<glyph name="r" format="2">
  <advance width="376"/>
  <unicode hex="0072"/>
  <outline>
    <contour>
      <point x="60" y="0" type="line"/>
      <point x="60" y="500" type="line"/>
      <point x="195" y="500" type="line"/>
      <point x="195" y="423" type="line"/>
      <point x="233" y="500"/>
      <point x="284" y="514"/>
      <point x="366" y="514" type="curve"/>
      <point x="366" y="399" type="line"/>
      <point x="264" y="399"/>
      <point x="195" y="354"/>
      <point x="195" y="256" type="curve" smooth="yes"/>
      <point x="195" y="0" type="line"/>
    </contour>
  </outline>
</glyph>
<glyph name="s" format="2">
  <advance width="516"/>
  <unicode hex="0073"/>
  <outline>
    <contour>
      <point x="44" y="154" type="curve"/>
      <point x="179" y="154" type="line"/>
      <point x="179" y="94"/>
      <point x="202" y="70"/>
      <point x="266" y="70" type="curve" smooth="yes"/>
      <point x="307" y="70"/>
      <point x="344" y="95"/>
      <point x="344" y="134" type="curve" smooth="yes"/>
      <point x="344" y="175"/>
      <point x="304" y="195"/>
      <point x="269" y="202" type="curve" smooth="yes"/>
      <point x="178" y="220"/>
      <point x="58" y="247"/>
      <point x="58" y="360" type="curve" smooth="yes"/>
      <point x="58" y="462"/>
      <point x="156" y="514"/>
      <point x="262" y="514" type="curve" smooth="yes"/>
      <point x="372" y="514"/>
      <point x="463" y="480"/>
      <point x="463" y="354" type="curve"/>
      <point x="328" y="354" type="line"/>
      <point x="325" y="408"/>
      <point x="304" y="427"/>
      <point x="244" y="427" type="curve" smooth="yes"/>
      <point x="208" y="427"/>
      <point x="186" y="408"/>
      <point x="186" y="379" type="curve" smooth="yes"/>
      <point x="186" y="342"/>
      <point x="220" y="325"/>
      <point x="287" y="311" type="curve" smooth="yes"/>
      <point x="377" y="292"/>
      <point x="472" y="263"/>
      <point x="472" y="153" type="curve" smooth="yes"/>
      <point x="472" y="34"/>
      <point x="362" y="-14"/>
      <point x="249" y="-14" type="curve" smooth="yes"/>
      <point x="142" y="-14"/>
      <point x="44" y="28"/>
    </contour>
  </outline>
</glyph>
<glyph name="t" format="2">
  <advance width="418"/>
  <unicode hex="0074"/>
  <anchor x="212" y="10" name="cedilla.bottom"/>
  <anchor x="212" y="722" name="top"/>
  <outline>
    <contour>
      <point x="265" y="157" type="line" smooth="yes"/>
      <point x="265" y="107"/>
      <point x="295" y="79"/>
      <point x="343" y="79" type="curve" smooth="yes"/>
      <point x="361" y="79"/>
      <point x="378" y="82"/>
      <point x="393" y="88" type="curve"/>
      <point x="393" y="3" type="line"/>
      <point x="362" y="-8"/>
      <point x="328" y="-14"/>
      <point x="291" y="-14" type="curve" smooth="yes"/>
      <point x="205" y="-14"/>
      <point x="130" y="36"/>
      <point x="130" y="119" type="curve" smooth="yes"/>
      <point x="130" y="415" type="line"/>
      <point x="30" y="415" type="line"/>
      <point x="30" y="500" type="line"/>
      <point x="130" y="500" type="line"/>
      <point x="130" y="577" type="line"/>
      <point x="265" y="647" type="line"/>
      <point x="265" y="500" type="line"/>
      <point x="384" y="500" type="line"/>
      <point x="384" y="415" type="line"/>
      <point x="265" y="415" type="line"/>
    </contour>
  </outline>
</glyph>
<glyph name="twosuperior" format="2">
  <advance width="371"/>
  <unicode hex="00B2"/>
  <outline>
    <contour>
      <point x="29" y="420" type="line"/>
      <point x="71" y="453" type="line" smooth="yes"/>
      <point x="195.868" y="551.111"/>
      <point x="240" y="588.412"/>
      <point x="240" y="632.927" type="curve" smooth="yes"/>
      <point x="240" y="661.836"/>
      <point x="223" y="684"/>
      <point x="191.806" y="684" type="curve" smooth="yes"/>
      <point x="162" y="684"/>
      <point x="141" y="663.764"/>
      <point x="141" y="631" type="curve"/>
      <point x="34" y="631" type="line"/>
      <point x="34" y="700.542"/>
      <point x="116" y="745"/>
      <point x="194.863" y="745" type="curve" smooth="yes"/>
      <point x="269" y="745"/>
      <point x="344" y="705.712"/>
      <point x="344" y="625.714" type="curve" smooth="yes"/>
      <point x="344" y="556.418"/>
      <point x="287.724" y="515.816"/>
      <point x="177" y="442" type="curve" smooth="yes"/>
      <point x="132" y="412" type="line"/>
      <point x="335" y="412" type="line"/>
      <point x="335" y="351" type="line"/>
      <point x="29" y="351" type="line"/>
    </contour>
  </outline>
</glyph>
<glyph name="cedilla" format="2">
  <advance width="250"/>
  <unicode hex="00B8"/>
  <outline>
    <contour>
      <point x="290" y="-169.608" type="curve" smooth="yes"/>
      <point x="290" y="-237.608"/>
      <point x="245.733" y="-265"/>
      <point x="173.733" y="-265" type="curve" smooth="yes"/>
      <point x="148.733" y="-265"/>
      <point x="126.961" y="-262.902"/>
      <point x="95.0119" y="-256" type="curve"/>
      <point x="95.0119" y="-196" type="line"/>
      <point x="129.749" y="-207.158"/>
      <point x="157.695" y="-209"/>
      <point x="174.35" y="-209" type="curve" smooth="yes"/>
      <point x="189.851" y="-209"/>
      <point x="205" y="-192.608"/>
      <point x="205" y="-170.608" type="curve" smooth="yes"/>
      <point x="205" y="-132.819"/>
      <point x="157.695" y="-121"/>
      <point x="126" y="-121" type="curve" smooth="yes"/>
      <point x="100" y="-121" type="line"/>
      <point x="170" y="19" type="line"/>
      <point x="240" y="19" type="line"/>
      <point x="191" y="-71" type="line"/>
      <point x="257.491" y="-71"/>
      <point x="290" y="-100.608"/>
    </contour>
  </outline>
</glyph>
<glyph name="Thorn" format="2">
  <advance width="655"/>
  <unicode hex="00DE"/>
  <outline>
    <contour>
      <point x="55" y="0" type="line"/>
      <point x="55" y="722" type="line"/>
      <point x="205" y="722" type="line"/>
      <point x="205" y="601" type="line"/>
      <point x="305" y="601" type="line" smooth="yes"/>
      <point x="468" y="601"/>
      <point x="586" y="538"/>
      <point x="586" y="381" type="curve" smooth="yes"/>
      <point x="586" y="223"/>
      <point x="468" y="163"/>
      <point x="305" y="163" type="curve" smooth="yes"/>
      <point x="205" y="163" type="line"/>
      <point x="205" y="0" type="line"/>
    </contour>
    <contour>
      <point x="205" y="278" type="line"/>
      <point x="305" y="278" type="line" smooth="yes"/>
      <point x="389" y="278"/>
      <point x="436" y="304"/>
      <point x="436" y="381" type="curve" smooth="yes"/>
      <point x="436" y="459"/>
      <point x="390" y="486"/>
      <point x="305" y="486" type="curve" smooth="yes"/>
      <point x="205" y="486" type="line"/>
    </contour>
  </outline>
</glyph>
<glyph name="germandbls" format="2">
  <advance width="573"/>
  <unicode hex="00DF"/>
  <outline>
    <contour>
      <point x="37" y="0" type="line"/>
      <point x="37" y="546" type="line" smooth="yes"/>
      <point x="37" y="673"/>
      <point x="115" y="737"/>
      <point x="272" y="737" type="curve" smooth="yes"/>
      <point x="367.711" y="737"/>
      <point x="487" y="699.172"/>
      <point x="487" y="590.159" type="curve" smooth="yes"/>
      <point x="487" y="526.008"/>
      <point x="445.69" y="474.429"/>
      <point x="408.749" y="445.611" type="curve" smooth="yes"/>
      <point x="385.08" y="427.146"/>
      <point x="364" y="402.756"/>
      <point x="364" y="384.248" type="curve" smooth="yes"/>
      <point x="364" y="352.886"/>
      <point x="433.943" y="311.352"/>
      <point x="450.451" y="302.975" type="curve" smooth="yes"/>
      <point x="514.487" y="270.478"/>
      <point x="557" y="226.741"/>
      <point x="557" y="152.48" type="curve" smooth="yes"/>
      <point x="557" y="56"/>
      <point x="483" y="-13"/>
      <point x="358.978" y="-13" type="curve" smooth="yes"/>
      <point x="262.482" y="-13"/>
      <point x="205.396" y="28.7705"/>
      <point x="205" y="139" type="curve"/>
      <point x="319" y="139" type="line"/>
      <point x="319" y="93"/>
      <point x="337" y="71"/>
      <point x="372.106" y="71" type="curve" smooth="yes"/>
      <point x="408" y="71"/>
      <point x="422" y="94"/>
      <point x="422" y="140" type="curve" smooth="yes"/>
      <point x="422" y="184"/>
      <point x="383.433" y="212.815"/>
      <point x="352" y="229" type="curve" smooth="yes"/>
      <point x="295.036" y="258.33"/>
      <point x="223" y="294.923"/>
      <point x="223" y="370" type="curve" smooth="yes"/>
      <point x="223" y="409"/>
      <point x="264" y="450"/>
      <point x="286.447" y="468.782" type="curve" smooth="yes"/>
      <point x="313" y="491"/>
      <point x="352" y="533"/>
      <point x="352" y="583.343" type="curve" smooth="yes"/>
      <point x="352" y="626"/>
      <point x="324" y="651"/>
      <point x="266.757" y="651" type="curve" smooth="yes"/>
      <point x="200" y="651"/>
      <point x="172" y="617"/>
      <point x="172" y="546" type="curve" smooth="yes"/>
      <point x="172" y="0" type="line"/>
    </contour>
  </outline>
</glyph>
<glyph name="thorn" format="2">
  <advance width="627"/>
  <unicode hex="00FE"/>
  <outline>
    <contour>
      <point x="71" y="-200" type="line"/>
      <point x="71" y="722" type="line"/>
      <point x="206" y="722" type="line"/>
      <point x="206" y="432" type="line"/>
      <point x="236.658" y="483.38"/>
      <point x="284.664" y="514"/>
      <point x="344" y="514" type="curve" smooth="yes"/>
      <point x="498.985" y="514"/>
      <point x="573" y="396.264"/>
      <point x="573" y="249.579" type="curve" smooth="yes"/>
      <point x="573" y="102.91"/>
      <point x="499" y="-14"/>
      <point x="352" y="-14" type="curve" smooth="yes"/>
      <point x="277.776" y="-14"/>
      <point x="229.086" y="16.7939"/>
      <point x="206" y="45.7024" type="curve"/>
      <point x="206" y="-200" type="line"/>
    </contour>
    <contour>
      <point x="206" y="251.489" type="curve" smooth="yes"/>
      <point x="206" y="177.446"/>
      <point x="222.296" y="71"/>
      <point x="317" y="71" type="curve" smooth="yes"/>
      <point x="412.872" y="71"/>
      <point x="441" y="180.385"/>
      <point x="441" y="255.939" type="curve" smooth="yes"/>
      <point x="441" y="333.26"/>
      <point x="411.541" y="424"/>
      <point x="328.226" y="424" type="curve" smooth="yes"/>
      <point x="244" y="424"/>
      <point x="206" y="331.263"/>
    </contour>
  </outline>
</glyph>
<glyph name="tbar" format="2">
  <advance width="370"/>
  <unicode hex="0167"/>
  <outline>
    <component base="t"/>
    <contour>
      <point x="78" y="323" type="line"/>
      <point x="78" y="238" type="line"/>
      <point x="317" y="238" type="line"/>
      <point x="317" y="323" type="line"/>
    </contour>
  </outline>
</glyph>
<glyph name="uni0267" format="2">
  <advance width="574"/>
  <unicode hex="0267"/>
  <outline>
    <contour>
      <point x="357" y="514" type="curve" smooth="yes"/>
      <point x="467" y="514"/>
      <point x="526" y="446"/>
      <point x="526" y="339" type="curve" smooth="yes"/>
      <point x="526" y="-1" type="line"/>
      <point x="391" y="-1" type="line"/>
      <point x="391" y="299" type="line" smooth="yes"/>
      <point x="391" y="388"/>
      <point x="361" y="432"/>
      <point x="301" y="432" type="curve" smooth="yes"/>
      <point x="239" y="432"/>
      <point x="195" y="352"/>
      <point x="195" y="288" type="curve" smooth="yes"/>
      <point x="195" y="-1" type="line"/>
      <point x="60" y="-1" type="line"/>
      <point x="60" y="462" type="line"/>
      <point x="195" y="462" type="line"/>
      <point x="195" y="442" type="line"/>
      <point x="232.348" y="495.741"/>
      <point x="285.922" y="514"/>
    </contour>
    <contour>
      <point x="526" y="134" type="line"/>
      <point x="526" y="-60" type="line" smooth="yes"/>
      <point x="526" y="-140.291"/>
      <point x="443.587" y="-199"/>
      <point x="335" y="-199" type="curve" smooth="yes"/>
      <point x="278" y="-199"/>
      <point x="232" y="-180"/>
      <point x="197" y="-142" type="curve"/>
      <point x="272.698" y="-66.1515" type="line"/>
      <point x="283.868" y="-78.279"/>
      <point x="300" y="-89"/>
      <point x="329" y="-89" type="curve" smooth="yes"/>
      <point x="363" y="-89"/>
      <point x="391" y="-63"/>
      <point x="391" y="-21" type="curve" smooth="yes"/>
      <point x="391" y="134" type="line"/>
    </contour>
    <contour>
      <point x="60" y="380" type="line"/>
      <point x="60" y="545" type="line" smooth="yes"/>
      <point x="60" y="653.789"/>
      <point x="141.653" y="732"/>
      <point x="255" y="732" type="curve" smooth="yes"/>
      <point x="354.139" y="732"/>
      <point x="398.049" y="710.478"/>
      <point x="441" y="673" type="curve"/>
      <point x="370.867" y="601.748" type="line"/>
      <point x="350.799" y="618.108"/>
      <point x="318" y="628"/>
      <point x="285.044" y="628" type="curve" smooth="yes"/>
      <point x="217.695" y="628"/>
      <point x="195" y="591.108"/>
      <point x="195" y="505.724" type="curve" smooth="yes"/>
      <point x="195" y="380" type="line"/>
    </contour>
  </outline>
</glyph>
<glyph name="uni0274" format="2">
  <advance width="535"/>
  <unicode hex="0274"/>
  <outline>
    <contour>
      <point x="62" y="0" type="line"/>
      <point x="62" y="500" type="line"/>
      <point x="207.797" y="500" type="line"/>
      <point x="399" y="100" type="line"/>
      <point x="399" y="500" type="line"/>
      <point x="496" y="500" type="line"/>
      <point x="496" y="0" type="line"/>
      <point x="351.199" y="0" type="line"/>
      <point x="159" y="400" type="line"/>
      <point x="159" y="0" type="line"/>
    </contour>
  </outline>
</glyph>
<glyph name="uni029C" format="2">
  <advance width="577"/>
  <unicode hex="029C"/>
  <outline>
    <contour>
      <point x="517" y="0" type="line"/>
      <point x="382" y="0" type="line"/>
      <point x="382" y="216" type="line"/>
      <point x="195" y="216" type="line"/>
      <point x="195" y="0" type="line"/>
      <point x="60" y="0" type="line"/>
      <point x="60" y="500" type="line"/>
      <point x="195" y="500" type="line"/>
      <point x="195" y="311" type="line"/>
      <point x="382" y="311" type="line"/>
      <point x="382" y="500" type="line"/>
      <point x="517" y="500" type="line"/>
    </contour>
  </outline>
</glyph>
<glyph name="ring" format="2">
  <advance width="239"/>
  <unicode hex="02DA"/>
  <outline>
    <contour>
      <point x="120" y="840" type="curve" smooth="yes"/>
      <point x="185" y="840"/>
      <point x="240" y="786"/>
      <point x="240" y="720" type="curve" smooth="yes"/>
      <point x="240" y="655"/>
      <point x="185" y="600"/>
      <point x="120" y="600" type="curve" smooth="yes"/>
      <point x="54" y="600"/>
      <point x="0" y="655"/>
      <point x="0" y="720" type="curve" smooth="yes"/>
      <point x="0" y="786"/>
      <point x="54" y="840"/>
    </contour>
    <contour>
      <point x="120" y="660" type="curve" smooth="yes"/>
      <point x="152" y="660"/>
      <point x="180" y="688"/>
      <point x="180" y="720" type="curve" smooth="yes"/>
      <point x="180" y="753"/>
      <point x="153" y="780"/>
      <point x="120" y="780" type="curve" smooth="yes"/>
      <point x="88" y="780"/>
      <point x="60" y="752"/>
      <point x="60" y="720" type="curve" smooth="yes"/>
      <point x="60" y="687"/>
      <point x="87" y="660"/>
    </contour>
  </outline>
</glyph>
<glyph name="hungarumlaut" format="2">
  <advance width="472"/>
  <unicode hex="02DD"/>
  <outline>
    <contour>
      <point x="251" y="790" type="line"/>
      <point x="108" y="599" type="line"/>
      <point x="10" y="599" type="line"/>
      <point x="101" y="790" type="line"/>
    </contour>
    <contour>
      <point x="461" y="791" type="line"/>
      <point x="318" y="599" type="line"/>
      <point x="220" y="599" type="line"/>
      <point x="311" y="791" type="line"/>
    </contour>
  </outline>
</glyph>
<glyph name="uni030A" format="2">
  <unicode hex="030A"/>
  <anchor x="-300" y="600" name="_top"/>
  <outline>
    <contour>
      <point x="-297" y="831" type="curve" smooth="yes"/>
      <point x="-231" y="831"/>
      <point x="-176" y="776"/>
      <point x="-176" y="710" type="curve" smooth="yes"/>
      <point x="-176" y="644"/>
      <point x="-231" y="589"/>
      <point x="-297" y="589" type="curve" smooth="yes"/>
      <point x="-363" y="589"/>
      <point x="-418" y="644"/>
      <point x="-418" y="710" type="curve" smooth="yes"/>
      <point x="-418" y="776"/>
      <point x="-363" y="831"/>
    </contour>
    <contour>
      <point x="-332.84" y="710" type="curve" smooth="yes"/>
      <point x="-332.84" y="689.525"/>
      <point x="-317.475" y="674.16"/>
      <point x="-297" y="674.16" type="curve" smooth="yes"/>
      <point x="-276.418" y="674.16"/>
      <point x="-261.16" y="689.418"/>
      <point x="-261.16" y="710" type="curve" smooth="yes"/>
      <point x="-261.16" y="730.506"/>
      <point x="-276.494" y="745.84"/>
      <point x="-297" y="745.84" type="curve" smooth="yes"/>
      <point x="-317.315" y="745.84"/>
      <point x="-332.84" y="730.315"/>
    </contour>
  </outline>
</glyph>
<glyph name="tonos" format="2">
  <advance width="221"/>
  <unicode hex="0384"/>
  <anchor x="12" y="511" name="_tonos.top"/>
  <anchor x="15" y="511" name="_top"/>
  <outline>
    <contour>
      <point x="139.736" y="722" type="line"/>
      <point x="50.0012" y="511.476" type="line"/>
      <point x="-19.9988" y="511.476" type="line"/>
      <point x="9.73614" y="722" type="line"/>
    </contour>
  </outline>
</glyph>
<glyph name="Gamma" format="2">
  <advance width="583"/>
  <unicode hex="0393"/>
  <outline>
    <contour>
      <point x="529" y="607" type="line"/>
      <point x="215" y="607" type="line"/>
      <point x="215" y="0" type="line"/>
      <point x="70" y="0" type="line"/>
      <point x="70" y="722" type="line"/>
      <point x="529" y="722" type="line"/>
    </contour>
  </outline>
</glyph>
<glyph name="Zeta" format="2">
  <advance width="632"/>
  <unicode hex="0396"/>
  <outline>
    <contour>
      <point x="588" y="0" type="line"/>
      <point x="45" y="0" type="line"/>
      <point x="45" y="125" type="line"/>
      <point x="407" y="607" type="line"/>
      <point x="67" y="607" type="line"/>
      <point x="67" y="722" type="line"/>
      <point x="580" y="722" type="line"/>
      <point x="580" y="597" type="line"/>
      <point x="218" y="115" type="line"/>
      <point x="588" y="115" type="line"/>
    </contour>
  </outline>
</glyph>
<glyph name="Lambda" format="2">
  <advance width="654"/>
  <unicode hex="039B"/>
  <outline>
    <contour>
      <point x="10" y="0" type="line"/>
      <point x="258" y="722" type="line"/>
      <point x="409" y="722" type="line"/>
      <point x="657" y="0" type="line"/>
      <point x="499" y="0" type="line"/>
      <point x="333" y="520" type="line"/>
      <point x="168" y="0" type="line"/>
    </contour>
  </outline>
</glyph>
<glyph name="iota" format="2">
  <advance width="333"/>
  <unicode hex="03B9"/>
  <anchor x="140" y="600" name="tonos.top"/>
  <outline>
    <contour>
      <point x="85" y="59" type="curve"/>
      <point x="85" y="501" type="line"/>
      <point x="220" y="501" type="line"/>
      <point x="220" y="127" type="line" smooth="yes"/>
      <point x="220" y="99"/>
      <point x="249.25" y="90"/>
      <point x="267.775" y="90" type="curve" smooth="yes"/>
      <point x="277.525" y="90"/>
      <point x="290.2" y="93"/>
      <point x="298" y="95" type="curve"/>
      <point x="298" y="-3" type="line"/>
      <point x="157.614" y="-3" type="line" smooth="yes"/>
      <point x="119.773" y="-3"/>
      <point x="97.2727" y="24"/>
    </contour>
  </outline>
</glyph>
<glyph name="mu" format="2">
  <advance width="660"/>
  <unicode hex="03BC"/>
  <outline>
    <contour>
      <point x="65" y="-200" type="line"/>
      <point x="65" y="500" type="line"/>
      <point x="200" y="500" type="line"/>
      <point x="200" y="190" type="line" smooth="yes"/>
      <point x="200" y="118"/>
      <point x="221" y="77"/>
      <point x="290" y="77" type="curve" smooth="yes"/>
      <point x="364" y="77"/>
      <point x="396" y="134"/>
      <point x="396" y="211" type="curve" smooth="yes"/>
      <point x="396" y="500" type="line"/>
      <point x="531" y="500" type="line"/>
      <point x="531" y="151" type="line" smooth="yes"/>
      <point x="531" y="89"/>
      <point x="547" y="76"/>
      <point x="586" y="76" type="curve" smooth="yes"/>
      <point x="607.024" y="76"/>
      <point x="625" y="83"/>
      <point x="641" y="94" type="curve"/>
      <point x="641" y="10" type="line"/>
      <point x="616" y="-5"/>
      <point x="577.572" y="-14"/>
      <point x="546" y="-14" type="curve" smooth="yes"/>
      <point x="484.41" y="-14"/>
      <point x="447.794" y="0"/>
      <point x="405" y="66" type="curve"/>
      <point x="378" y="13"/>
      <point x="340" y="-13"/>
      <point x="290" y="-13" type="curve" smooth="yes"/>
      <point x="263" y="-13"/>
      <point x="233" y="-1"/>
      <point x="200" y="23" type="curve"/>
      <point x="200" y="-200" type="line"/>
    </contour>
  </outline>
</glyph>
<glyph name="rho" format="2">
  <advance width="612"/>
  <unicode hex="03C1"/>
  <outline>
    <contour>
      <point x="66" y="-200" type="line"/>
      <point x="66" y="214.669" type="line" smooth="yes"/>
      <point x="66" y="416.41"/>
      <point x="146.005" y="514"/>
      <point x="337.834" y="514" type="curve" smooth="yes"/>
      <point x="492.842" y="514"/>
      <point x="570" y="396.185"/>
      <point x="570" y="257" type="curve" smooth="yes"/>
      <point x="570" y="102"/>
      <point x="494.887" y="-14"/>
      <point x="347.749" y="-14" type="curve" smooth="yes"/>
      <point x="295.293" y="-14"/>
      <point x="242.292" y="0"/>
      <point x="201" y="45" type="curve"/>
      <point x="201" y="-200" type="line"/>
    </contour>
    <contour>
      <point x="201.903" y="283.567" type="curve" smooth="yes"/>
      <point x="202" y="202" type="line" smooth="yes"/>
      <point x="202.087" y="127.941"/>
      <point x="246.47" y="70"/>
      <point x="313.047" y="70" type="curve" smooth="yes"/>
      <point x="402.029" y="70"/>
      <point x="430.874" y="163.988"/>
      <point x="434.576" y="239.706" type="curve" smooth="yes"/>
      <point x="435" y="257" type="line"/>
      <point x="435" y="333.002"/>
      <point x="405.792" y="424"/>
      <point x="316.021" y="424" type="curve" smooth="yes"/>
      <point x="246.47" y="424"/>
      <point x="201.805" y="366.047"/>
    </contour>
  </outline>
</glyph>
<glyph name="psi" format="2">
  <advance width="741"/>
  <unicode hex="03C8"/>
  <outline>
    <contour>
      <point x="304" y="72" type="curve"/>
      <point x="304" y="722" type="line"/>
      <point x="439" y="722" type="line"/>
      <point x="439" y="72" type="line"/>
      <point x="509.192" y="72.2391"/>
      <point x="546" y="122.869"/>
      <point x="546" y="190" type="curve" smooth="yes"/>
      <point x="546" y="501" type="line"/>
      <point x="681" y="501" type="line"/>
      <point x="681" y="203" type="line" smooth="yes"/>
      <point x="681" y="42.4997"/>
      <point x="543.314" y="-14"/>
      <point x="439" y="-14" type="curve"/>
      <point x="439" y="-200" type="line"/>
      <point x="304" y="-200" type="line"/>
      <point x="304" y="-14" type="line"/>
      <point x="136.854" y="-14.3099"/>
      <point x="60" y="102.67"/>
      <point x="60" y="202" type="curve" smooth="yes"/>
      <point x="60" y="501" type="line"/>
      <point x="195" y="501" type="line"/>
      <point x="195" y="190" type="line" smooth="yes"/>
      <point x="195" y="109.351"/>
      <point x="235.308" y="72"/>
    </contour>
  </outline>
</glyph>
<glyph name="theta1" format="2">
  <advance width="580"/>
  <unicode hex="03D1"/>
  <outline>
    <contour>
      <point x="259" y="589" type="curve" smooth="yes"/>
      <point x="256" y="589" type="line" smooth="yes"/>
      <point x="222.596" y="589"/>
      <point x="198" y="561.49"/>
      <point x="198" y="522.913" type="curve" smooth="yes"/>
      <point x="198" y="455.79"/>
      <point x="272.466" y="412.827"/>
      <point x="331" y="400.615" type="curve" smooth="yes"/>
      <point x="379" y="390.601" type="line"/>
      <point x="378" y="408.633" type="line" smooth="yes"/>
      <point x="371.614" y="523.79"/>
      <point x="331.364" y="589"/>
    </contour>
    <contour>
      <point x="247.224" y="694.996" type="curve" smooth="yes"/>
      <point x="430.82" y="694.686"/>
      <point x="518.75" y="551.775"/>
      <point x="519" y="256.365" type="curve" smooth="yes"/>
      <point x="519.148" y="81.8847"/>
      <point x="431.14" y="-14"/>
      <point x="276.844" y="-14" type="curve" smooth="yes"/>
      <point x="150.247" y="-14"/>
      <point x="60" y="48.2609"/>
      <point x="60" y="149.178" type="curve" smooth="yes"/>
      <point x="60" y="291.497" type="line"/>
      <point x="195" y="291.497" type="line"/>
      <point x="195" y="153.185" type="line" smooth="yes"/>
      <point x="195" y="105.957"/>
      <point x="227.063" y="72"/>
      <point x="277.371" y="72" type="curve" smooth="yes"/>
      <point x="366.517" y="72"/>
      <point x="384" y="120.276"/>
      <point x="384" y="216.295" type="curve" smooth="yes"/>
      <point x="384" y="319.476" type="line"/>
      <point x="179.756" y="339.293"/>
      <point x="70" y="441.387"/>
      <point x="70" y="555.227" type="curve" smooth="yes"/>
      <point x="70" y="644.995"/>
      <point x="138.245" y="695.18"/>
    </contour>
  </outline>
</glyph>
<glyph name="Djecyr" format="2">
  <advance width="741"/>
  <unicode hex="0402"/>
  <outline>
    <component base="T"/>
    <contour>
      <point x="446" y="-14" type="curve"/>
      <point x="446" y="87.822" type="line"/>
      <point x="585.305" y="87.822"/>
      <point x="637" y="124.037"/>
      <point x="637" y="217.535" type="curve" smooth="yes"/>
      <point x="637" y="308.73"/>
      <point x="587.821" y="355.283"/>
      <point x="456" y="355.283" type="curve" smooth="yes"/>
      <point x="419.032" y="355.283"/>
      <point x="382.3" y="345.983"/>
      <point x="316" y="325.283" type="curve"/>
      <point x="316" y="426.93" type="line"/>
      <point x="382.3" y="447.63"/>
      <point x="436.027" y="456.93"/>
      <point x="503" y="456.93" type="curve" smooth="yes"/>
      <point x="723" y="456.93"/>
      <point x="788" y="358.971"/>
      <point x="788" y="231.567" type="curve" smooth="yes"/>
      <point x="788" y="63.7235"/>
      <point x="675.188" y="-14"/>
    </contour>
  </outline>
</glyph>
<glyph name="Tshecyr" format="2">
  <advance width="835"/>
  <unicode hex="040B"/>
  <outline>
    <contour>
      <point x="788" y="0" type="line"/>
      <point x="637" y="-0.178" type="line"/>
      <point x="637" y="217.535" type="line" smooth="yes"/>
      <point x="637" y="308.73"/>
      <point x="587.821" y="355.283"/>
      <point x="456" y="355.283" type="curve" smooth="yes"/>
      <point x="419.032" y="355.283"/>
      <point x="382.3" y="345.983"/>
      <point x="316" y="325.283" type="curve"/>
      <point x="316" y="426.93" type="line"/>
      <point x="382.3" y="447.63"/>
      <point x="436.027" y="456.93"/>
      <point x="503" y="456.93" type="curve" smooth="yes"/>
      <point x="723" y="456.93"/>
      <point x="788" y="358.971"/>
      <point x="788" y="231.567" type="curve" smooth="yes"/>
    </contour>
    <contour>
      <point x="606" y="607" type="line"/>
      <point x="393" y="607" type="line"/>
      <point x="393" y="0" type="line"/>
      <point x="243" y="0" type="line"/>
      <point x="243" y="607" type="line"/>
      <point x="30" y="607" type="line"/>
      <point x="30" y="722" type="line"/>
      <point x="606" y="722" type="line"/>
    </contour>
  </outline>
</glyph>
<glyph name="uni0414" format="2">
  <advance width="803"/>
  <unicode hex="0414"/>
  <outline>
    <contour>
      <point x="526" y="120" type="line"/>
      <point x="526" y="602" type="line"/>
      <point x="338" y="602" type="line"/>
      <point x="338" y="576" type="line" smooth="yes"/>
      <point x="338" y="409"/>
      <point x="332" y="259"/>
      <point x="230" y="120" type="curve"/>
    </contour>
    <contour>
      <point x="780" y="-162" type="line"/>
      <point x="645" y="-162" type="line"/>
      <point x="645" y="0" type="line"/>
      <point x="158" y="0" type="line"/>
      <point x="158" y="-162" type="line"/>
      <point x="13" y="-162" type="line"/>
      <point x="13" y="120" type="line"/>
      <point x="69" y="120" type="line"/>
      <point x="187" y="265"/>
      <point x="193" y="411"/>
      <point x="193" y="587" type="curve" smooth="yes"/>
      <point x="193" y="722" type="line"/>
      <point x="681" y="722" type="line"/>
      <point x="681" y="107" type="line"/>
      <point x="780" y="107" type="line"/>
    </contour>
  </outline>
</glyph>
<glyph name="uni0416" format="2">
  <advance width="975"/>
  <unicode hex="0416"/>
  <outline>
    <contour>
      <point x="415" y="320" type="line"/>
      <point x="184" y="0" type="line"/>
      <point x="10" y="0" type="line"/>
      <point x="301" y="408" type="line"/>
      <point x="42" y="722" type="line"/>
      <point x="209" y="722" type="line"/>
      <point x="415" y="467" type="line"/>
      <point x="415" y="722" type="line"/>
      <point x="560" y="722" type="line"/>
      <point x="560" y="467" type="line"/>
      <point x="766" y="722" type="line"/>
      <point x="933" y="722" type="line"/>
      <point x="673" y="407" type="line"/>
      <point x="965" y="0" type="line"/>
      <point x="791" y="0" type="line"/>
      <point x="560" y="320" type="line"/>
      <point x="560" y="0" type="line"/>
      <point x="415" y="0" type="line"/>
    </contour>
  </outline>
</glyph>
<glyph name="uni0417" format="2">
  <advance width="567"/>
  <unicode hex="0417"/>
  <outline>
    <contour>
      <point x="34" y="218" type="curve"/>
      <point x="179" y="218" type="line"/>
      <point x="187" y="137"/>
      <point x="212" y="98"/>
      <point x="274" y="98" type="curve" smooth="yes"/>
      <point x="350" y="98"/>
      <point x="382" y="148"/>
      <point x="382" y="204" type="curve" smooth="yes"/>
      <point x="382" y="275"/>
      <point x="333" y="318"/>
      <point x="244" y="318" type="curve" smooth="yes"/>
      <point x="190" y="318" type="line"/>
      <point x="190" y="432" type="line"/>
      <point x="237" y="432" type="line" smooth="yes"/>
      <point x="314" y="432"/>
      <point x="370" y="464"/>
      <point x="370" y="543" type="curve" smooth="yes"/>
      <point x="370" y="598"/>
      <point x="332" y="624"/>
      <point x="290" y="624" type="curve" smooth="yes"/>
      <point x="236" y="624"/>
      <point x="205" y="585"/>
      <point x="190" y="506" type="curve"/>
      <point x="45" y="506" type="line"/>
      <point x="70" y="670"/>
      <point x="180" y="736"/>
      <point x="287" y="736" type="curve" smooth="yes"/>
      <point x="405" y="736"/>
      <point x="520" y="656"/>
      <point x="520" y="536" type="curve" smooth="yes"/>
      <point x="520" y="467"/>
      <point x="457" y="407"/>
      <point x="407" y="377" type="curve"/>
      <point x="407" y="381" type="line"/>
      <point x="463" y="355"/>
      <point x="532" y="299"/>
      <point x="532" y="211" type="curve" smooth="yes"/>
      <point x="532" y="76"/>
      <point x="403" y="-13"/>
      <point x="271" y="-13" type="curve" smooth="yes"/>
      <point x="132" y="-13"/>
      <point x="34" y="76"/>
    </contour>
  </outline>
</glyph>
<glyph name="uni041B" format="2">
  <advance width="723"/>
  <unicode hex="041B"/>
  <outline>
    <contour>
      <point x="15" y="2" type="curve"/>
      <point x="15" y="128" type="line"/>
      <point x="26" y="123"/>
      <point x="43" y="122"/>
      <point x="53" y="122" type="curve" smooth="yes"/>
      <point x="154" y="122"/>
      <point x="165" y="242"/>
      <point x="165" y="418" type="curve" smooth="yes"/>
      <point x="165" y="722" type="line"/>
      <point x="663" y="722" type="line"/>
      <point x="663" y="0" type="line"/>
      <point x="518" y="0" type="line"/>
      <point x="518" y="602" type="line"/>
      <point x="310" y="602" type="line"/>
      <point x="310" y="394" type="line" smooth="yes"/>
      <point x="310" y="129"/>
      <point x="230" y="-7"/>
      <point x="68" y="-7" type="curve" smooth="yes"/>
      <point x="49" y="-7"/>
      <point x="29" y="-4"/>
    </contour>
  </outline>
</glyph>
<glyph name="uni0423" format="2">
  <advance width="666"/>
  <unicode hex="0423"/>
  <outline>
    <contour>
      <point x="645" y="722" type="line"/>
      <point x="393" y="151" type="line"/>
      <point x="357" y="82" type="line"/>
      <point x="321" y="29"/>
      <point x="268" y="-9"/>
      <point x="189" y="-9" type="curve" smooth="yes"/>
      <point x="143" y="-9"/>
      <point x="94" y="18"/>
      <point x="64" y="42" type="curve"/>
      <point x="64" y="166" type="line"/>
      <point x="91" y="135"/>
      <point x="147" y="105"/>
      <point x="172" y="105" type="curve" smooth="yes"/>
      <point x="230" y="105"/>
      <point x="259" y="157"/>
      <point x="291" y="230" type="curve"/>
      <point x="10" y="722" type="line"/>
      <point x="170" y="722" type="line"/>
      <point x="352" y="371" type="line"/>
      <point x="494" y="722" type="line"/>
    </contour>
  </outline>
</glyph>
<glyph name="uni0427" format="2">
  <advance width="702"/>
  <unicode hex="0427"/>
  <outline>
    <contour>
      <point x="320" y="214" type="curve"/>
      <point x="339" y="215" type="line"/>
      <point x="119" y="215"/>
      <point x="46" y="326"/>
      <point x="46" y="552" type="curve" smooth="yes"/>
      <point x="46" y="723" type="line"/>
      <point x="191" y="723" type="line"/>
      <point x="191" y="552" type="line" smooth="yes"/>
      <point x="191" y="418"/>
      <point x="212" y="336"/>
      <point x="338" y="336" type="curve" smooth="yes"/>
      <point x="417" y="336"/>
      <point x="456" y="354"/>
      <point x="497" y="393" type="curve"/>
      <point x="497" y="723" type="line"/>
      <point x="642" y="723" type="line"/>
      <point x="642" y="1" type="line"/>
      <point x="497" y="1" type="line"/>
      <point x="497" y="245" type="line"/>
      <point x="453" y="225"/>
      <point x="396" y="214"/>
    </contour>
  </outline>
</glyph>
<glyph name="uni0434" format="2">
  <advance width="612"/>
  <unicode hex="0434"/>
  <outline>
    <contour>
      <point x="400" y="95" type="line"/>
      <point x="400" y="405" type="line"/>
      <point x="259.813" y="405" type="line"/>
      <point x="257.813" y="366.87" type="line" smooth="yes"/>
      <point x="249.82" y="214.493"/>
      <point x="233.901" y="147.795"/>
      <point x="195" y="95" type="curve"/>
    </contour>
    <contour>
      <point x="599" y="-141" type="line"/>
      <point x="469" y="-141" type="line"/>
      <point x="469" y="0" type="line"/>
      <point x="140" y="0" type="line"/>
      <point x="140" y="-141" type="line"/>
      <point x="10" y="-141" type="line"/>
      <point x="10" y="95" type="line"/>
      <point x="61" y="95" type="line"/>
      <point x="118" y="189"/>
      <point x="128.599" y="230.177"/>
      <point x="137" y="429" type="curve" smooth="yes"/>
      <point x="140" y="500" type="line"/>
      <point x="535" y="500" type="line"/>
      <point x="535" y="95" type="line"/>
      <point x="599" y="95" type="line"/>
    </contour>
  </outline>
</glyph>
<glyph name="uni0436" format="2">
  <advance width="770"/>
  <unicode hex="0436"/>
  <outline>
    <contour>
      <point x="10" y="0" type="line"/>
      <point x="224" y="279" type="line"/>
      <point x="20" y="500" type="line"/>
      <point x="175" y="500" type="line"/>
      <point x="323" y="337" type="line"/>
      <point x="325" y="337" type="line"/>
      <point x="325" y="500" type="line"/>
      <point x="445" y="500" type="line"/>
      <point x="445" y="337" type="line"/>
      <point x="447" y="337" type="line"/>
      <point x="594" y="500" type="line"/>
      <point x="750" y="500" type="line"/>
      <point x="546" y="278" type="line"/>
      <point x="760" y="0" type="line"/>
      <point x="603" y="0" type="line"/>
      <point x="447" y="210" type="line"/>
      <point x="445" y="209" type="line"/>
      <point x="445" y="0" type="line"/>
      <point x="325" y="0" type="line"/>
      <point x="325" y="209" type="line"/>
      <point x="323" y="209" type="line"/>
      <point x="168" y="0" type="line"/>
    </contour>
  </outline>
</glyph>
<glyph name="uni0438" format="2">
  <advance width="587"/>
  <unicode hex="0438"/>
  <outline>
    <contour>
      <point x="60" y="0" type="line"/>
      <point x="60" y="500" type="line"/>
      <point x="205" y="500" type="line"/>
      <point x="205" y="173" type="line"/>
      <point x="208" y="173" type="line"/>
      <point x="379" y="500" type="line"/>
      <point x="527" y="500" type="line"/>
      <point x="527" y="0" type="line"/>
      <point x="392" y="0" type="line"/>
      <point x="392" y="327" type="line"/>
      <point x="389" y="327" type="line"/>
      <point x="218" y="0" type="line"/>
    </contour>
  </outline>
</glyph>
<glyph name="uni043A" format="2">
  <advance width="540"/>
  <unicode hex="043A"/>
  <outline>
    <contour>
      <point x="60" y="0" type="line"/>
      <point x="60" y="500" type="line"/>
      <point x="195" y="500" type="line"/>
      <point x="195" y="301" type="line"/>
      <point x="199" y="301" type="line"/>
      <point x="352" y="500" type="line"/>
      <point x="514" y="500" type="line"/>
      <point x="334" y="284" type="line"/>
      <point x="530" y="0" type="line"/>
      <point x="366" y="0" type="line"/>
      <point x="199" y="261" type="line"/>
      <point x="195" y="261" type="line"/>
      <point x="195" y="0" type="line"/>
    </contour>
  </outline>
</glyph>
<glyph name="uni043F" format="2">
  <advance width="567"/>
  <unicode hex="043F"/>
  <outline>
    <contour>
      <point x="60" y="0" type="line"/>
      <point x="60" y="500" type="line"/>
      <point x="507" y="500" type="line"/>
      <point x="507" y="-1" type="line"/>
      <point x="372" y="-1" type="line"/>
      <point x="372" y="405" type="line"/>
      <point x="195" y="405" type="line"/>
      <point x="195" y="0" type="line"/>
    </contour>
  </outline>
</glyph>
<glyph name="uni0443" format="2">
  <advance width="545"/>
  <unicode hex="0443"/>
  <outline>
    <contour>
      <point x="115" y="-200" type="line"/>
      <point x="237" y="-200" type="line"/>
      <point x="545" y="500" type="line"/>
      <point x="410" y="500" type="line"/>
    </contour>
    <contour>
      <point x="220.579" y="-53.4296" type="line"/>
      <point x="294.345" y="109.393" type="line"/>
      <point x="163" y="500" type="line"/>
      <point x="10" y="500" type="line"/>
    </contour>
  </outline>
</glyph>
<glyph name="uni044E" format="2">
  <advance width="802"/>
  <unicode hex="044E"/>
  <outline>
    <contour>
      <point x="60" y="0" type="line"/>
      <point x="60" y="500" type="line"/>
      <point x="195" y="500" type="line"/>
      <point x="195" y="309" type="line"/>
      <point x="268" y="309" type="line"/>
      <point x="291" y="439"/>
      <point x="383" y="514"/>
      <point x="522.772" y="514" type="curve" smooth="yes"/>
      <point x="725" y="514"/>
      <point x="758" y="357"/>
      <point x="758" y="246" type="curve" smooth="yes"/>
      <point x="758" y="76"/>
      <point x="648" y="-14"/>
      <point x="516" y="-14" type="curve" smooth="yes"/>
      <point x="371" y="-14"/>
      <point x="280" y="64"/>
      <point x="268" y="214" type="curve"/>
      <point x="195" y="214" type="line"/>
      <point x="195" y="0" type="line"/>
    </contour>
    <contour>
      <point x="408" y="250" type="curve" smooth="yes"/>
      <point x="408" y="164"/>
      <point x="444" y="85"/>
      <point x="513" y="85" type="curve" smooth="yes"/>
      <point x="582" y="85"/>
      <point x="618" y="164"/>
      <point x="618" y="250" type="curve" smooth="yes"/>
      <point x="618" y="336"/>
      <point x="582" y="419"/>
      <point x="513" y="419" type="curve" smooth="yes"/>
      <point x="444" y="419"/>
      <point x="408" y="336"/>
    </contour>
  </outline>
</glyph>
<glyph name="djecyr" format="2">
  <advance width="586"/>
  <unicode hex="0452"/>
  <outline>
    <component base="h"/>
    <contour>
      <point x="526" y="134" type="line"/>
      <point x="526" y="-60" type="line" smooth="yes"/>
      <point x="526" y="-140.291"/>
      <point x="443.587" y="-199"/>
      <point x="335" y="-199" type="curve" smooth="yes"/>
      <point x="278" y="-199"/>
      <point x="232" y="-180"/>
      <point x="197" y="-142" type="curve"/>
      <point x="272.698" y="-66.1515" type="line"/>
      <point x="283.868" y="-78.279"/>
      <point x="300" y="-89"/>
      <point x="329" y="-89" type="curve" smooth="yes"/>
      <point x="363" y="-89"/>
      <point x="391" y="-63"/>
      <point x="391" y="-21" type="curve" smooth="yes"/>
      <point x="391" y="134" type="line"/>
    </contour>
    <contour>
      <point x="330" y="549" type="line"/>
      <point x="-20" y="549" type="line"/>
      <point x="-20" y="649" type="line"/>
      <point x="330" y="649" type="line"/>
    </contour>
  </outline>
</glyph>
<glyph name="dzhecyr" format="2">
  <advance width="567"/>
  <unicode hex="045F"/>
  <outline>
    <component base="uni043F" yScale="-1" yOffset="499"/>
    <contour>
      <point x="337" y="0" type="line"/>
      <point x="337" y="-141" type="line"/>
      <point x="230" y="-141" type="line"/>
      <point x="230" y="0" type="line"/>
    </contour>
  </outline>
</glyph>
<glyph name="uni1FFD" format="2">
  <advance width="221"/>
  <unicode hex="1FFD"/>
  <outline>
    <contour>
      <point x="262" y="780" type="line"/>
      <point x="111" y="600" type="line"/>
      <point x="41" y="600" type="line"/>
      <point x="132" y="780" type="line"/>
    </contour>
  </outline>
</glyph>
<glyph name="uni2015" format="2">
  <advance width="1100"/>
  <unicode hex="2015"/>
  <outline>
    <contour>
      <point x="1100" y="200" type="line"/>
      <point x="0" y="200" type="line"/>
      <point x="0" y="311" type="line"/>
      <point x="1100" y="311" type="line"/>
    </contour>
  </outline>
</glyph>
<glyph name="trademark" format="2">
  <advance width="643"/>
  <unicode hex="2122"/>
  <outline>
    <contour>
      <point x="263" y="668" type="line"/>
      <point x="182" y="668" type="line"/>
      <point x="182" y="439" type="line"/>
      <point x="126" y="439" type="line"/>
      <point x="126" y="668" type="line"/>
      <point x="45" y="668" type="line"/>
      <point x="45" y="712" type="line"/>
      <point x="263" y="712" type="line"/>
    </contour>
    <contour>
      <point x="599" y="439" type="line"/>
      <point x="546" y="439" type="line"/>
      <point x="546" y="665" type="line"/>
      <point x="477" y="439" type="line"/>
      <point x="423" y="439" type="line"/>
      <point x="354" y="665" type="line"/>
      <point x="354" y="439" type="line"/>
      <point x="301" y="439" type="line"/>
      <point x="301" y="712" type="line"/>
      <point x="391" y="712" type="line"/>
      <point x="450" y="514" type="line"/>
      <point x="509" y="712" type="line"/>
      <point x="599" y="712" type="line"/>
    </contour>
  </outline>
</glyph>
<glyph name="uni2206" format="2">
  <advance width="638"/>
  <unicode hex="2206"/>
  <outline>
    <contour>
      <point x="635" y="0" type="line"/>
      <point x="6" y="0" type="line"/>
      <point x="340" y="718" type="line"/>
    </contour>
    <contour>
      <point x="499" y="56" type="line"/>
      <point x="303" y="530" type="line"/>
      <point x="81" y="56" type="line"/>
    </contour>
  </outline>
</glyph>
<glyph name="summation" format="2">
  <advance width="743"/>
  <unicode hex="2211"/>
  <outline>
    <contour>
      <point x="17" y="776.009" type="line"/>
      <point x="17" y="780" type="line"/>
      <point x="30.8414" y="778.465"/>
      <point x="110" y="773"/>
      <point x="125" y="773" type="curve" smooth="yes"/>
      <point x="644" y="773" type="line"/>
      <point x="657" y="607" type="line"/>
      <point x="636" y="607" type="line"/>
      <point x="603.81" y="703.57"/>
      <point x="578.431" y="726"/>
      <point x="470" y="726" type="curve" smooth="yes"/>
      <point x="265" y="726" type="line"/>
      <point x="546" y="356" type="line"/>
      <point x="243" y="6" type="line"/>
      <point x="553" y="6" type="line" smooth="yes"/>
      <point x="644.125" y="6"/>
      <point x="662.291" y="46.5627"/>
      <point x="694" y="125" type="curve"/>
      <point x="718" y="125" type="line"/>
      <point x="697" y="34"/>
      <point x="682" y="-44"/>
      <point x="673" y="-109" type="curve"/>
      <point x="666" y="-107"/>
      <point x="604" y="-97"/>
      <point x="593" y="-97" type="curve" smooth="yes"/>
      <point x="75" y="-97" type="line" smooth="yes"/>
      <point x="64" y="-97"/>
      <point x="31.6214" y="-97.4656"/>
      <point x="15" y="-100" type="curve"/>
      <point x="375" y="311" type="line"/>
    </contour>
  </outline>
</glyph>
<glyph name="uni0432.loclBGR" format="2">
  <advance width="603"/>
  <outline>
    <contour>
      <point x="185" y="427.231" type="line"/>
      <point x="218.744" y="446.529"/>
      <point x="257.952" y="461.062"/>
      <point x="305" y="469" type="curve" smooth="yes"/>
      <point x="359.737" y="478.235"/>
      <point x="394" y="515.833"/>
      <point x="394" y="550.875" type="curve" smooth="yes"/>
      <point x="394" y="604.018"/>
      <point x="364.111" y="636"/>
      <point x="301.572" y="636" type="curve" smooth="yes"/>
      <point x="225.666" y="636"/>
      <point x="185" y="592.28"/>
      <point x="185" y="490.28" type="curve" smooth="yes"/>
    </contour>
    <contour>
      <point x="185.189" y="323.137" type="curve"/>
      <point x="185" y="215.362" type="line" smooth="yes"/>
      <point x="184.849" y="129.362"/>
      <point x="233" y="84"/>
      <point x="303" y="84" type="curve" smooth="yes"/>
      <point x="374.041" y="84"/>
      <point x="430" y="149.213"/>
      <point x="430" y="232" type="curve" smooth="yes"/>
      <point x="430" y="314"/>
      <point x="378" y="372"/>
      <point x="304" y="372" type="curve" smooth="yes"/>
      <point x="250.766" y="372"/>
      <point x="205.112" y="344.833"/>
    </contour>
    <contour>
      <point x="60" y="267.362" type="curve" smooth="yes"/>
      <point x="60" y="495.28" type="line" smooth="yes"/>
      <point x="60" y="648.28"/>
      <point x="160" y="734"/>
      <point x="313" y="734" type="curve" smooth="yes"/>
      <point x="440.524" y="734"/>
      <point x="529" y="663.595"/>
      <point x="529" y="565" type="curve" smooth="yes"/>
      <point x="529" y="514.081"/>
      <point x="506.081" y="475.057"/>
      <point x="455" y="439" type="curve"/>
      <point x="522.608" y="404.223"/>
      <point x="559" y="330.627"/>
      <point x="559" y="246.627" type="curve" smooth="yes"/>
      <point x="559" y="105.17"/>
      <point x="441.571" y="-14"/>
      <point x="301" y="-14" type="curve" smooth="yes"/>
      <point x="134.969" y="-14"/>
      <point x="60" y="74.2141"/>
    </contour>
  </outline>
</glyph>
<glyph name="uni043B.loclBGR" format="2">
  <advance width="543"/>
  <outline>
    <contour>
      <point x="20" y="0" type="line"/>
      <point x="206" y="500" type="line"/>
      <point x="336" y="500" type="line"/>
      <point x="523" y="0" type="line"/>
      <point x="375" y="0" type="line"/>
      <point x="267" y="318" type="line"/>
      <point x="159" y="0" type="line"/>
    </contour>
  </outline>
</glyph>
<glyph name="uni0446.loclBGR" format="2">
  <advance width="618"/>
  <outline>
    <contour>
      <point x="60" y="159" type="curve" smooth="yes"/>
      <point x="60" y="500" type="line"/>
      <point x="195" y="500" type="line"/>
      <point x="195" y="199" type="line" smooth="yes"/>
      <point x="195" y="98"/>
      <point x="238" y="67"/>
      <point x="284" y="67" type="curve" smooth="yes"/>
      <point x="343" y="67"/>
      <point x="390" y="113"/>
      <point x="390" y="221" type="curve" smooth="yes"/>
      <point x="390" y="500" type="line"/>
      <point x="525" y="500" type="line"/>
      <point x="525" y="127" type="line" smooth="yes"/>
      <point x="525" y="81.4326"/>
      <point x="556" y="67"/>
      <point x="594" y="67" type="curve"/>
      <point x="594" y="-128" type="line"/>
      <point x="487" y="-128" type="line"/>
      <point x="487" y="0" type="line"/>
      <point x="480.988" y="0.0653" type="line"/>
      <point x="452.966" y="0.3696"/>
      <point x="423.078" y="9.74088"/>
      <point x="406" y="42" type="curve"/>
      <point x="372" y="5"/>
      <point x="285" y="-14"/>
      <point x="227" y="-14" type="curve" smooth="yes"/>
      <point x="120.3" y="-14"/>
      <point x="60" y="47.5321"/>
    </contour>
  </outline>
</glyph>
<glyph name="uni0449.loclBGR" format="2">
  <advance width="918"/>
  <outline>
    <contour>
      <point x="771" y="-1" type="curve"/>
      <point x="732" y="2"/>
      <point x="708" y="13"/>
      <point x="690" y="45" type="curve"/>
      <point x="653" y="6"/>
      <point x="608" y="-14"/>
      <point x="557" y="-14" type="curve" smooth="yes"/>
      <point x="476.615" y="-14"/>
      <point x="433.745" y="4.84777"/>
      <point x="399" y="56" type="curve"/>
      <point x="359" y="9"/>
      <point x="310" y="-13"/>
      <point x="250" y="-13" type="curve" smooth="yes"/>
      <point x="123" y="-13"/>
      <point x="60" y="52"/>
      <point x="60" y="181" type="curve" smooth="yes"/>
      <point x="60" y="499" type="line"/>
      <point x="195" y="499" type="line"/>
      <point x="195" y="434.448"/>
      <point x="195" y="244.724"/>
      <point x="195" y="181" type="curve" smooth="yes"/>
      <point x="195" y="120"/>
      <point x="208" y="83"/>
      <point x="267" y="83" type="curve" smooth="yes"/>
      <point x="320" y="83"/>
      <point x="367" y="137"/>
      <point x="367" y="181" type="curve" smooth="yes"/>
      <point x="367" y="498" type="line"/>
      <point x="502" y="498" type="line"/>
      <point x="502" y="441.441"/>
      <point x="502" y="237.559"/>
      <point x="502" y="181" type="curve" smooth="yes"/>
      <point x="502" y="129"/>
      <point x="520" y="82"/>
      <point x="571" y="82" type="curve" smooth="yes"/>
      <point x="630" y="82"/>
      <point x="677" y="137"/>
      <point x="677" y="181" type="curve" smooth="yes"/>
      <point x="677" y="499" type="line"/>
      <point x="812" y="499" type="line"/>
      <point x="812" y="428.443"/>
      <point x="812" y="224.088"/>
      <point x="812" y="140" type="curve" smooth="yes"/>
      <point x="812" y="93"/>
      <point x="830" y="82"/>
      <point x="878" y="82" type="curve"/>
      <point x="878" y="-129" type="line"/>
      <point x="771" y="-129" type="line"/>
      <point x="771" y="-103.323"/>
      <point x="771" y="-23.7701"/>
    </contour>
  </outline>
</glyph>
<glyph name="uni044C.loclBGR" format="2">
  <advance width="593"/>
  <outline>
    <contour>
      <point x="60" y="186" type="curve" smooth="yes"/>
      <point x="60" y="500" type="line"/>
      <point x="195" y="500" type="line"/>
      <point x="195" y="350" type="line"/>
      <point x="221.649" y="376.308"/>
      <point x="265.631" y="389"/>
      <point x="306.908" y="389" type="curve" smooth="yes"/>
      <point x="449.575" y="389"/>
      <point x="523" y="322.022"/>
      <point x="523" y="186" type="curve" smooth="yes"/>
      <point x="523" y="55"/>
      <point x="429" y="-12"/>
      <point x="287" y="-12" type="curve" smooth="yes"/>
      <point x="141" y="-12"/>
      <point x="60" y="58"/>
    </contour>
    <contour>
      <point x="195" y="186" type="curve" smooth="yes"/>
      <point x="195" y="122"/>
      <point x="226.568" y="85"/>
      <point x="288" y="85" type="curve" smooth="yes"/>
      <point x="358" y="85"/>
      <point x="382" y="122"/>
      <point x="382" y="186" type="curve" smooth="yes"/>
      <point x="382" y="248"/>
      <point x="352" y="292"/>
      <point x="289" y="292" type="curve" smooth="yes"/>
      <point x="231.487" y="292"/>
      <point x="195" y="248"/>
    </contour>
  </outline>
</glyph>
